# xmcd
#
# Track frame offsets:
#	150
#	18506
#	31584
#	44170
#	56493
#	74275
#	90267
#	110135
#	123559
#	139463
#	160563
#
# Disc length: 2338 seconds
#
# Revision: 1
# Processed by: cddbd v1.5.1PL2 Copyright (c) Steve Scherf et al.
# Submitted via: audiograbber 1.81.02
#
DISCID=9409200b
DTITLE=Tamra Rosanes - LineDANCEparty
DYEAR=2006
DGENRE=Country
TTITLE0=At The Line Dance
TTITLE1=Peace Understanding And Love
TTITLE2=You Cant Stop Love
TTITLE3=Adios Farvel Goodbye
TTITLE4=Lasso You
TTITLE5=Party Animal
TTITLE6=I Feel Complete
TTITLE7=Language Of The Heart
TTITLE8=Life Can Be A Party
TTITLE9=I Wont Let Go
TTITLE10=Lucky Me, Lucky You
EXTD=
EXTT0=
EXTT1=
EXTT2=
EXTT3=
EXTT4=
EXTT5=
EXTT6=
EXTT7=
EXTT8=
EXTT9=
EXTT10=
PLAYORDER=
